<?xml version="1.0" encoding="UTF-8" standalone="no"?>
<svg version="1.1" width="380" height="340" 
	xmlns="http://www.w3.org/2000/svg" 
	xmlns:xlink="http://www.w3.org/1999/xlink" fill="#112f73">
<g transform="translate(20,0)">

<!--trident-->
<path style="fill:none;stroke:#dda803;stroke-width:5px" 
	d="m 170,170 c -3.1,-4.2 -5.9,-7.8 -10.4,-11.7 c -9.9,-9.2 -13,-27.1 -1.8,-49.7 c 10.8,-21.2 11.5,-49.7 12.2,-79.2 
	c 0.7,29.5 1.4,58.0 12.2,79.2 c 11.2,22.6 8.1,40.5 -1.8,49.7 c -4.5,3.9 -7.3,7.5 -10.4,11.7 z 
	v -32"/>
<path id="left_part_of_trident" style="fill:none;stroke:#dda803;stroke-width:5px" 
	d="m 170,138 h -43.5 l 0,-103.4 c 21.2,11.6 22.2,45.7 21.8,65.8 -15.1,-0.1 -15.8,23.3 3.4,23.4 10.9,-0.1 17,4.7 18.3,14.2 z 
	m -45,-26 h12"/>
<use xlink:href="#left_part_of_trident" transform="scale(-1,1) translate(-340,0)"/>
<ellipse fill="#dda803" cx="170" cy="29.4" rx="2.5" ry="12"/>


<!--branches-->
<g id="left_branch">
	<path style="fill:none;stroke:#112f73;stroke-width:5px" d="
		M 170,244 V 218.8 C 147.7,145 106.8,160.7 105.2,194.9 C 110.3,130.1 73,107.9 55,142.9 
			C 38.8,92.1 55.7,75.1 92.2,54 c 21.4,-5.3 28.4,14.8 12.2,14 
			c -5.9,-0.3 2.9,-12.4 0.4,-0.83
		M 92.2,54 C 99.6,46.6 103.3,39.9 91.9,36.3 
			c -2.1,-0.4 -7.6,0.6 -7.1,4.7 1.1,5.5 9.3,5.9 2.5,-3.7
		M 76,64 C 89,64.9 96,70.2 94.1,82 
		M 48.8,107.8 c 29.5,-43.7 40.7,16.8 17.9,3 
			C 54.3,102 80,97.3 66.1,108
		M 99.2,146.3 c 0.6,-8.8 0.9,-17.9 8.7,-19.7 
			c 12.8,-1.5 5.9,14.8 0.8,1.2
		M 104.3,164.4 c -26.1,-28.1 -38,4.3 -32.1,11.3 21.8,12.9 21.5,-13 14.4,-9.9 
			c -10.4,1.5 -5.9,11.8 -1.4,1.1
		M 72.1,175.7 c 4.4,12.4 16.2,29.5 -1.6,28 
			c -10.6,-0.1 3.8,-17.2 0,-2.3
		M 138,168.5 c -9.3,-8.2 -14.7,-17.9 -4.6,-20.2 
			c 8.8,-2.5 7,16.7 0.2,1.7
		M 154.5,184.1 c -14.7,-5.4 -24.1,-4.4 -24.4,7.4 
			c -0,11.4 17.4,-0.5 2.1,0.6
		M 170,224.3 c -12.3,-25.8 -47.3,-24.3 -47.5,0.1 0.9,24.5 28.8,22 27.7,8.2 
			c -1.7,-22.3 -25.2,2.7 -4.7,-0.9 3.9,-0.7 -0.6,-7.9 -5,-1.9"/>

  <g id="triangle">
	<path d="m 76,80 h36 l -18,48 l -18,-48 z"/>
	<g id="small_triangle">
		<path fill="white" d="M 82,96 l 6,-16 l 6,16 h-12 z"/>
		<ellipse cx="88" cy="91" rx="2" ry="4"/>
	</g>
	<use xlink:href="#small_triangle" transform="translate(12,0)"/>
	<use xlink:href="#small_triangle" transform="translate(6,16)"/>
  </g>
  <use xlink:href="#triangle" transform="translate(-40,60)"/>
  <use xlink:href="#triangle" transform="translate(10,110)"/>
</g>
<use xlink:href="#left_branch" transform="scale(-1,1) translate(-340,0)"/>
<rect x="166" y="220" width="8" height="24"/>

</g>


<!--text-->
	<!--Ministry-->
<path id="m" d="m 124.1,268.9 c -1.27,0.01 -1.65,0.8 -1.69,1.79 
	v 19.71 c 0.01,0.46 0.6,0.59 1.09,0.67 0.27,0.03 0.62,0.05 1.03,0.05 0.42,0 0.76,-0.02 1.03,-0.05 0.65,-0.1 
	1.1,-0.24 1.11,-0.67 v -18 c 2.11,5.92 4.16,11.99 6.22,17.98 0.19,0.46 0.75,0.59 1.3,0.68 0.27,0.03 0.6,0.05 
	0.99,0.05 0.39,0 0.72,-0.01 0.99,-0.03 0.74,-0.09 1.1,-0.24 1.31,-0.7 2.17,-5.97 4.23,-12.07 6.44,-17.98 
	v 18 c 0.01,0.47 0.6,0.59 1.09,0.67 0.27,0.03 0.62,0.05 1.03,0.05 0.42,0 0.77,-0.02 1.04,-0.05 0.64,-0.14 
	1.09,-0.22 1.09,-0.67 v -19.71 c 0.01,-1.15 -0.62,-1.69 -1.78,-1.79 h -3.03 c -1.74,0.06 -2.52,1.15 -3.04,2.58 
	-1.72,4.34 -3.22,8.92 -5.02,13.14 l -4.79,-13.18 c -0.72,-1.8 -1.89,-2.52 -3.49,-2.54 z"/>
<g id="in">
<path id="i" d="m 155.3,268.8 c -0.43,0 -0.79,0.02 -1.08,0.05 
	-0.67,0.11 -1.17,0.23 -1.18,0.67 v 20.88 c 0.01,0.41 0.65,0.58 1.16,0.67 0.3,0.03 0.66,0.05 1.09,0.05 
	0.44,0 0.81,-0.02 1.09,-0.05 0.65,-0.09 1.15,-0.21 1.16,-0.67 V 269.5 c -0.01,-0.47 -0.63,-0.59 -1.16,-0.67 
	-0.28,-0.03 -0.65,-0.05 -1.09,-0.05 z"/>
<path id="n" d="m 178.7,268.8 c -0.41,0 -0.75,0.02 -1.01,0.05 -0.68,0.11 -1.07,0.17 -1.08,0.68 0.03,5.04 -0.08,10.6 0.1,15.35 
	h -0.02 c -2.74,-5.43 -5.03,-10.32 -7.69,-14.82 -0.58,-0.94 -1.53,-1.2 -2.55,-1.2 h -2.41 c -1.15,0.01 
	-1.6,0.77 -1.62,1.61 v 19.88 c 0.02,0.42 0.54,0.61 1.01,0.68 0.26,0.03 0.59,0.05 0.99,0.05 0.41,0 0.75,-0.02 
	1.01,-0.05 0.62,-0.12 1.02,-0.22 1.04,-0.68 -0.04,-5.44 0.11,-11.38 -0.14,-16.54 2.69,5.5 5.55,11.19 
	8.17,15.81 0.58,0.97 1.55,1.36 2.55,1.4 h 1.91 c 1.09,-0 1.68,-0.53 1.69,-1.61 v -19.88 c -0.01,-0.48 
	-0.53,-0.6 -0.99,-0.68 -0.26,-0.03 -0.59,-0.05 -0.97,-0.05 z"/></g>
<use xlink:href="#i" transform="translate(32.4,0)"/>
<path id="s" d="m 201.3,268.5 c -4.66,0.06 -7.41,2.99 -7.42,6.38 0.11,3.61 2.18,5 4.7,6.27 2.12,0.97 4.65,1.45 4.7,3.81 
	0.03,1.92 -1.53,2.78 -3.5,2.82 -2.25,-0.13 -3.87,-1.05 -5.62,-1.81 -0.45,-0.19 -0.57,0.56 -0.62,0.99 
	-0.07,0.72 -0.09,1.41 0.05,2.1 0.15,0.61 0.63,0.86 1.04,1.15 1.47,0.79 3.38,1.17 5.13,1.2 4.68,-0.1 8.15,-2.49 
	8.19,-7.02 -0.21,-4.13 -3.23,-5.56 -6.49,-6.97 -1.6,-0.76 -2.98,-1.48 -3.01,-3.03 0.06,-1.76 1.42,-2.34 
	2.92,-2.38 1.88,0.08 3.26,0.81 4.72,1.5 0.32,0.13 0.4,-0.2 0.46,-0.43 0.16,-0.7 0.18,-1.5 0.1,-2.13 -0.05,-0.44 
	-0.13,-0.85 -0.39,-1.11 -1.23,-1.05 -3.38,-1.32 -4.96,-1.33 z"/>
<path id="t" d="m 209.5,268.9 c -0.47,0 -0.61,0.55 -0.63,0.97 -0.02,0.24 -0.03,0.53 -0.03,0.87 0,0.33 0.01,0.62 0.03,0.86 0.06,0.62 0.21,0.96 0.63,0.97 
	h 5.54 v 17.82 c 0.01,0.43 0.65,0.61 1.16,0.67 0.3,0.03 0.66,0.05 1.09,0.05 0.43,0 0.79,-0.02 1.08,-0.05 
	0.67,-0.1 1.17,-0.27 1.18,-0.67 v -17.82 h 5.54 c 0.45,-0.01 0.53,-0.51 0.62,-0.97 0.03,-0.24 0.05,-0.53 
	0.05,-0.86 0,-0.34 -0.02,-0.63 -0.05,-0.87 -0.1,-0.59 -0.21,-0.97 -0.62,-0.97 z"/>
<path id="r" d="M 229.7,268.9 c -1.05,0 -1.31,0.55 
	-1.33,1.42 v 20.08 c -0,0.46 0.58,0.6 1.14,0.67 0.3,0.03 0.66,0.05 1.09,0.05 0.44,0 0.81,-0.02 1.09,-0.05 
	0.66,-0.1 1.16,-0.3 1.16,-0.67 v -8.43 c 2.79,0.01 4.14,1.15 5.09,3.45 l 1.98,4.94 c 0.25,0.55 0.68,0.65 
	1.2,0.72 0.28,0.02 0.67,0.03 1.14,0.03 0.57,0 1.02,-0.01 1.35,-0.03 1.01,-0.08 1.27,-0.36 1.06,-1.11 
	-0.96,-2.46 -1.79,-4.56 -2.87,-6.71 -0.55,-1.13 -1.52,-1.92 -2.48,-2.53 2.62,-0.77 4.29,-3.38 4.29,-5.76 
	0,-4.14 -3.42,-5.96 -6.77,-6.03 -2.31,-0.07 -4.73,-0.03 -7.16,-0.03 z 
		m 3.16,3.43 h 2.02 c 2.52,0 4.08,0.93 4.1,3.09 -0.02,2.44 -1.55,3.14 -3.83,3.18 h -2.29 z"/>
<path id="y" d="m 247.7,268.8 c -0.63,0 -1.12,0.02 -1.47,0.05 -0.79,0.09 -1.03,0.26 -0.84,0.75 1.97,4.25 4.31,8.72 6.48,13.02 
	v 7.78 c 0.01,0.42 0.67,0.59 1.16,0.67 0.28,0.03 0.65,0.05 1.09,0.05 0.43,0 0.79,-0.02 1.08,-0.05 0.66,-0.1 
	1.17,-0.22 1.18,-0.67 v -7.78 c 1.97,-4.4 4.67,-8.57 6.46,-13.02 0.18,-0.43 -0.24,-0.67 -0.84,-0.75 -0.35,-0.03 
	-0.85,-0.05 -1.5,-0.05 -0.49,0 -0.88,0.01 -1.18,0.03 -0.51,0.04 -0.93,0.09 -1.09,0.41 -1.37,3.17 -2.9,6.42 
	-4,9.28 -1.15,-3.06 -2.68,-6.28 -3.88,-8.92 -0.3,-0.56 -0.76,-0.71 -1.4,-0.77 -0.31,-0.02 -0.72,-0.03 -1.25,-0.03 z"/>


	<!--of...of-->
<g id="of">
	<path id="o" d="m 20.1,304.5 c -7.7,0.22 -10.65,3.95 -10.68,11.59 
		0.07,7.22 3.47,11.22 10.27,11.31 7.8,-0.16 10.54,-4.34 10.66,-11.71 -0.05,-6.66 -3.2,-11.08 -10.25,-11.2 z 
			M 19.9,308.2 c 4.69,0.14 5.65,3.39 5.69,7.74 -0.06,4 -1.49,7.68 
			-5.81,7.76 -4.25,-0.08 -5.68,-3.89 -5.69,-7.83 0.13,-4.09 1.77,-7.64 5.81,-7.67 z"/>
	<path id="f" d="M 35.4,304.9 c -0.98,0 -1.31,0.62 -1.33,1.42 v 20.05 c 0.02,0.49 0.62,0.62 1.16,0.7 0.3,0.03 0.66,0.05 
		1.09,0.05 0.44,0 0.81,-0.02 1.09,-0.05 0.67,-0.15 1.15,-0.25 1.16,-0.7 v -8.24 h 6.79 c 0.52,-0.01 0.54,-0.5 
		0.61,-0.97 0.03,-0.23 0.05,-0.51 0.05,-0.85 0,-0.34 -0.02,-0.63 -0.05,-0.86 -0.11,-0.61 -0.14,-0.9 -0.61,-0.92 
		h -6.79 v -5.95 h 7.23 c 0.51,-0.02 0.55,-0.48 0.62,-0.96 0.03,-0.24 0.05,-0.53 0.05,-0.87 0,-0.34 -0.02,-0.63 
		-0.05,-0.87 -0.11,-0.59 -0.14,-0.97 -0.62,-0.97 z"/>
</g>
<use xlink:href="#of" transform="translate(186.2,0)"/>


	<!--culture-->
<path id="c" d="M 67.3,304.5 c -6.95,-0 -10.12,5.25 -10.25,11.71 0.09,7.09 2.88,11.08 9.86,11.12 2.75,-0.01 4.73,-0.53 5.98,-1.74 0.37,-0.39 
	0.44,-0.79 0.48,-1.23 0.02,-0.21 0.04,-0.45 0.04,-0.73 0,-0.41 -0.01,-0.74 -0.04,-0.97 -0.08,-1.08 -0.51,-1.05 
	-1.18,-0.65 -1.39,0.88 -2.93,1.49 -4.58,1.52 -3.94,0 -5.71,-3.99 -5.71,-7.55 0.13,-4.36 1.73,-7.63 5.59,-7.69 
	1.83,0.02 3.23,0.64 4.56,1.64 0.87,0.59 1.14,0.04 1.25,-0.72 0.02,-0.24 0.03,-0.53 0.03,-0.87 0,-0.32 
	-0.01,-0.59 -0.03,-0.8 -0.07,-0.67 -0.18,-1 -0.53,-1.33 -1.48,-1.17 -3.68,-1.66 -5.47,-1.69 z"/>
<path id="u" d="m 78.9,304.8 c -0.44,0 -0.81,0.02 -1.09,0.05 -0.71,0.13 -1.16,0.21 -1.16,0.67 v 13.45 c 0.07,5.26 3.37,8.38 8.9,8.44 
	6.2,-0.08 9.13,-2.94 9.16,-8.63 V 305.5 c -0.02,-0.5 -0.61,-0.6 -1.14,-0.67 -0.27,-0.03 -0.63,-0.05 -1.06,-0.05 
	-0.43,0 -0.8,0.02 -1.09,0.05 -0.68,0.1 -1.13,0.23 -1.14,0.67 v 13.31 c -0.03,2.79 -1.73,4.84 -4.53,4.89 
	-3.24,-0.04 -4.56,-2.22 -4.6,-5.14 V 305.5 c -0,-0.46 -0.61,-0.58 -1.16,-0.67 -0.28,-0.03 -0.64,-0.05 -1.08,-0.05 z"/>
<path id="l" d="m 101.8,304.8 c -0.43,0 -0.8,0.02 -1.09,0.05 -0.68,0.08 -1.15,0.22 -1.16,0.67 v 20.08 c 0.01,0.84 0.44,1.39 1.33,1.42 
	h 10.13 c 0.54,-0.01 0.55,-0.56 0.63,-1.01 0.03,-0.24 0.05,-0.53 0.05,-0.87 0,-0.34 -0.02,-0.63 -0.05,-0.86 
	-0.1,-0.59 -0.22,-0.95 -0.63,-0.97 h -6.96 V 305.5 c -0.01,-0.48 -0.68,-0.6 -1.16,-0.67 -0.28,-0.03 -0.65,-0.05 -1.09,-0.05 z"/>
<use xlink:href="#t" transform="translate(-99.3,36)"/>
<use xlink:href="#u" transform="translate(52.6,0)"/>
<use xlink:href="#r" transform="translate(-76.4,36)"/>
<path id="e" d="m 173,304.9 c -0.98,0.02 -1.29,0.61 -1.33,1.42 v 19.28 c -0.01,0.84 0.52,1.39 1.33,1.42 h 11.11 c 0.45,0.01 
	0.54,-0.48 0.62,-0.92 0.03,-0.23 0.05,-0.51 0.05,-0.84 0,-0.33 -0.02,-0.6 -0.05,-0.82 -0.11,-0.53 -0.15,-0.92 
	-0.62,-0.94 h -7.96 v -6.24 h 6.68 c 0.1,0 0.19,-0.03 0.27,-0.09 0.09,-0.06 0.16,-0.15 0.22,-0.27 0.06,-0.14 
	0.1,-0.31 0.12,-0.53 0.03,-0.22 0.05,-0.49 0.05,-0.82 0,-0.32 -0.02,-0.59 -0.05,-0.8 -0.02,-0.23 -0.06,-0.41 
	-0.12,-0.53 -0.06,-0.14 -0.13,-0.23 -0.22,-0.29 -0.08,-0.07 -0.17,-0.1 -0.27,-0.1 h -6.68 v -5.4 h 7.9 
	c 0.44,-0.01 0.53,-0.47 0.6,-0.92 0.03,-0.23 0.05,-0.5 0.05,-0.82 0,-0.34 -0.02,-0.62 
	-0.05,-0.84 -0.1,-0.57 -0.15,-0.94 -0.6,-0.94 z"/>


	<!--Ukraine-->
<use xlink:href="#u" transform="translate(167.8,0)"/>
<path id="k" d="m 269.6,304.8 c -0.43,0 -0.8,0.02 -1.09,0.05 -0.73,0.11 -1.15,0.33 -1.16,0.68 
	v 20.83 c 0,0.53 0.59,0.62 1.16,0.7 0.3,0.03 0.66,0.05 1.09,0.05 0.44,0 0.81,-0.02 1.09,-0.05 0.71,-0.12 
	1.14,-0.13 1.14,-0.7 v -10.49 l 6.68,10.49 c 0.2,0.31 0.6,0.58 1.03,0.67 0.33,0.06 0.87,0.08 1.61,0.08 
	0.47,0 0.85,-0.02 1.16,-0.05 0.95,-0.16 1.3,-0.43 1.09,-1.08 -0.05,-0.16 -0.19,-0.47 -0.45,-0.94 l -6.61,-10 
	6.07,-7.95 c 0.28,-0.44 0.48,-0.77 0.58,-0.97 0.41,-0.82 -0.2,-1.17 -1.03,-1.28 -0.3,-0.03 -0.67,-0.05 
	-1.13,-0.05 -0.44,0 -0.81,0.01 -1.09,0.03 -0.63,0.07 -1.07,0.27 -1.44,0.72 l -6.48,9.4 v -9.42 c 0,-0.44 
	-0.61,-0.59 -1.14,-0.68 -0.28,-0.03 -0.65,-0.05 -1.09,-0.05 z"/>
<use xlink:href="#r" transform="translate(57.9,36)"/>
<path id="a" d="m 314.2,304.8 c -0.58,0 -1.05,0.01 -1.4,0.03 -0.85,0.07 -1.27,0.31 -1.5,0.86 l -6.82,19.62 
	c -0.33,1 -0.2,1.64 0.48,1.76 0.3,0.03 0.71,0.05 1.23,0.05 0.49,0 0.88,-0.01 1.18,-0.03 
	0.75,-0.1 1.06,-0.3 1.25,-0.79 l 1.4,-4.32 h 8.3 l 1.49,4.44 c 0.2,0.53 0.72,0.61 1.27,0.67 0.33,0.02 
	0.79,0.03 1.37,0.03 0.56,0 1,-0.02 1.32,-0.05 0.71,-0.13 0.87,-0.3 0.8,-0.75 -0.03,-0.24 -0.12,-0.56 -0.26,-0.97 
	l -6.84,-19.6 c -0.24,-0.59 -0.93,-0.85 -1.66,-0.91 -0.4,-0.02 -0.94,-0.03 -1.61,-0.03 z 
		M 313.88,309.11 c 1.06,3.1 2.1,6.27 3.14,9.4 h -6.27 z"/>
<use xlink:href="#in" transform="translate(174.3,36)"/>
<use xlink:href="#e" transform="translate(187.9,0)"/>

</svg>