<?xml version="1.0" standalone="no"?>
<!DOCTYPE svg PUBLIC "-//W3C//DTD SVG 20010904//EN"
 "http://www.w3.org/TR/2001/REC-SVG-20010904/DTD/svg10.dtd">
<svg version="1.0" xmlns="http://www.w3.org/2000/svg"
 width="1100.000000pt" height="348.000000pt" viewBox="0 0 1100.000000 348.000000"
 preserveAspectRatio="xMidYMid meet">
<style type="text/css">.st1{fill:#03407a}</style>
<defs>
<linearGradient id="lgrad-s" gradientTransform="rotate(135)"><stop offset="0%" stop-color="#77ba1a"></stop><stop offset="25%" stop-color="#03407a"></stop></linearGradient>
<linearGradient id="lgrad-o" gradientTransform="rotate(125)"><stop offset="0%" stop-color="#77ba1a"></stop><stop offset="40%" stop-color="#03407a"></stop></linearGradient>
<linearGradient id="lgrad-l" gradientTransform="rotate(90)"><stop offset="30%" stop-color="#77ba1a"></stop><stop offset="90%" stop-color="#03407a"></stop></linearGradient>
</defs>
<g transform="translate(0.000000,348.000000) scale(0.100000,-0.100000)"
fill="#000000" stroke="none">
<path class="st1" d="M6916 3088 c23 -75 59 -108 127 -115 53 -5 103 19 134 66 33 49 30
71 -7 71 -23 0 -33 -6 -40 -24 -11 -30 -39 -46 -79 -46 -33 0 -71 30 -71 55 0
11 -11 15 -36 15 -32 0 -35 -2 -28 -22z"/>
<path fill="url(#lgrad-s)" d="M50 1645 l0 -1265 1265 0 1265 0 0 1265 0 1265 -1265 0 -1265 0 0
-1265z m2210 0 l0 -945 -945 0 -945 0 0 945 0 945 945 0 945 0 0 -945z"/>
<path fill="url(#lgrad-o)" d="M1278 2308 c-50 -102 -185 -221 -323 -284 l-55 -25 0 -124 0 -124 42
15 c65 23 183 89 249 140 l59 45 0 -510 0 -511 140 0 140 0 0 715 0 715 -113
0 -113 0 -26 -52z"/>
<path fill="url(#lgrad-l)" d="M3160 2565 l0 -345 70 0 70 0 0 285 0 285 135 0 135 0 0 -285 0 -285
70 0 70 0 0 345 0 345 -275 0 -275 0 0 -345z"/>
<path fill="url(#lgrad-l)" d="M3840 2565 l0 -345 260 0 260 0 0 60 0 60 -190 0 -190 0 0 90 0 90
170 0 170 0 0 60 0 60 -170 0 -170 0 0 75 0 75 185 0 185 0 0 60 0 60 -255 0
-255 0 0 -345z"/>
<path fill="url(#lgrad-l)" d="M4480 2566 l0 -346 70 0 70 0 0 129 0 128 119 6 c153 7 201 29 243
111 16 31 19 54 16 116 -4 90 -28 135 -93 172 -37 21 -55 23 -232 26 l-193 4
0 -346z m356 191 c14 -16 24 -41 24 -58 0 -72 -44 -99 -160 -99 l-80 0 0 96 0
96 96 -4 c91 -3 97 -5 120 -31z"/>
<path fill="url(#lgrad-l)" d="M5120 2565 l0 -345 410 0 410 0 0 345 0 345 -70 0 -70 0 0 -285 0
-285 -100 0 -100 0 0 285 0 285 -70 0 -70 0 0 -285 0 -285 -100 0 -100 0 0
285 0 285 -70 0 -70 0 0 -345z"/>
<path fill="url(#lgrad-l)" d="M6090 2565 l0 -346 72 3 71 3 129 210 c71 116 134 214 139 220 5 5 9
-76 9 -213 l0 -222 65 0 65 0 0 345 0 346 -72 -3 -71 -3 -136 -225 -136 -225
-3 228 -2 227 -65 0 -65 0 0 -345z"/>
<path fill="url(#lgrad-l)" d="M6780 2565 l0 -346 72 3 71 3 129 210 c71 116 134 214 139 220 5 5 9
-76 9 -213 l0 -222 65 0 65 0 0 345 0 346 -72 -3 -71 -3 -136 -225 -136 -224
-3 227 -2 227 -65 0 -65 0 0 -345z"/>
<path class="st1" d="M8046 2168 c23 -75 59 -108 127 -115 53 -5 103 19 134 66 33 49 30
71 -7 71 -23 0 -33 -6 -40 -24 -11 -30 -39 -46 -79 -46 -33 0 -71 30 -71 55 0
11 -11 15 -36 15 -32 0 -35 -2 -28 -22z"/>
<path class="st1" d="M4696 1989 c-77 -19 -125 -63 -155 -141 -10 -26 -9 -27 47 -39 31 -6
61 -13 67 -15 6 -3 19 11 29 30 30 57 102 73 162 37 77 -47 25 -161 -72 -161
l-34 0 0 -50 0 -50 43 0 c154 0 167 -175 14 -188 -66 -5 -110 15 -134 62 l-18
34 -62 -19 -63 -20 15 -37 c25 -60 48 -85 101 -112 42 -21 63 -25 144 -25 142
0 212 34 251 120 43 93 7 194 -85 242 l-28 15 30 21 c107 76 95 220 -22 277
-52 25 -169 35 -230 19z"/>
<path class="st1" d="M3170 1645 l0 -345 65 0 65 0 1 268 1 267 18 -70 c10 -38 39 -159 66
-267 l48 -198 66 0 66 0 66 268 66 267 1 -267 1 -268 65 0 65 0 0 345 0 345
-103 0 -104 0 -58 -225 c-33 -124 -62 -225 -65 -225 -3 0 -32 101 -65 225
l-58 225 -104 0 -103 0 0 -345z"/>
<path class="st1" d="M4011 1773 c62 -120 118 -227 126 -238 21 -31 15 -64 -16 -96 -25
-24 -37 -29 -80 -29 l-51 0 0 -55 0 -54 36 -7 c46 -9 109 0 139 20 13 9 36 36
51 61 28 48 274 592 274 607 0 4 -31 8 -68 8 l-69 0 -68 -177 -69 -176 -36 74
c-19 41 -56 120 -82 177 l-47 102 -76 0 -76 0 112 -217z"/>
<path class="st1" d="M5170 1645 l0 -346 72 3 71 3 129 210 c71 116 134 214 139 220 5 5 9
-76 9 -213 l0 -222 65 0 65 0 0 345 0 346 -72 -3 -71 -3 -136 -225 -136 -225
-3 228 -2 227 -65 0 -65 0 0 -345z"/>
<path class="st1" d="M5850 1842 c0 -133 2 -152 23 -192 12 -25 37 -55 55 -67 67 -45 204
-53 290 -18 l32 14 0 -140 0 -139 70 0 70 0 0 345 0 345 -70 0 -70 0 0 -149 0
-149 -45 -17 c-31 -12 -63 -16 -106 -13 -52 4 -66 9 -86 32 -22 26 -23 35 -23
162 l0 134 -70 0 -70 0 0 -148z"/>
<path class="st1" d="M6530 1645 l0 -345 70 0 70 0 0 150 0 150 135 0 135 0 0 -150 0 -150
70 0 70 0 0 345 0 345 -70 0 -70 0 0 -135 0 -135 -135 0 -135 0 0 135 0 135
-70 0 -70 0 0 -345z"/>
<path class="st1" d="M7220 1645 l0 -346 72 3 71 3 129 210 c71 116 134 214 139 220 5 5 9
-76 9 -213 l0 -222 65 0 65 0 0 345 0 346 -72 -3 -71 -3 -136 -225 -136 -225
-3 228 -2 227 -65 0 -65 0 0 -345z"/>
<path class="st1" d="M7910 1645 l0 -346 72 3 71 3 129 210 c71 116 134 214 139 220 5 5 9
-76 9 -213 l0 -222 65 0 65 0 0 345 0 346 -72 -3 -71 -3 -136 -225 -136 -224
-3 227 -2 227 -65 0 -65 0 0 -345z"/>
<path class="st1" d="M3170 725 l0 -345 70 0 70 0 0 285 0 285 160 0 160 0 0 60 0 60 -230
0 -230 0 0 -345z"/>
<path class="st1" d="M3700 725 l0 -345 65 0 65 0 0 345 0 345 -65 0 -65 0 0 -345z"/>
<path class="st1" d="M3970 725 l0 -345 70 0 70 0 0 285 0 285 135 0 135 0 0 -285 0 -285
70 0 70 0 0 345 0 345 -275 0 -275 0 0 -345z"/>
<path class="st1" d="M4660 725 l0 -345 260 0 260 0 0 60 0 60 -190 0 -190 0 0 90 0 90
170 0 170 0 0 60 0 60 -170 0 -170 0 0 75 0 75 185 0 185 0 0 60 0 60 -255 0
-255 0 0 -345z"/>
<path class="st1" d="M5300 726 l0 -346 70 0 70 0 0 129 0 128 119 6 c153 7 201 29 243
111 16 31 19 54 16 116 -4 90 -28 135 -93 172 -37 21 -55 23 -232 26 l-193 4
0 -346z m356 191 c14 -16 24 -41 24 -58 0 -72 -44 -99 -160 -99 l-80 0 0 96 0
96 96 -4 c91 -3 97 -5 120 -31z"/>
<path class="st1" d="M5930 725 l0 -345 65 0 65 0 1 268 1 267 18 -70 c10 -38 39 -159 66
-267 l48 -198 66 0 66 0 66 268 66 267 1 -267 1 -268 65 0 65 0 0 345 0 345
-103 0 -104 0 -58 -225 c-33 -124 -62 -225 -65 -225 -3 0 -32 101 -65 225
l-58 225 -104 0 -103 0 0 -345z"/>
<path class="st1" d="M6902 1018 c-11 -29 -68 -174 -127 -323 -59 -148 -111 -280 -116
-293 -8 -22 -7 -22 65 -22 l74 0 28 80 29 80 136 0 136 0 28 -72 c15 -40 31
-77 35 -81 4 -4 39 -7 77 -5 l71 3 -138 340 -138 340 -70 3 -70 3 -20 -53z
m134 -241 l42 -112 -44 -3 c-24 -2 -64 -2 -88 0 l-44 3 42 112 c22 62 43 113
46 113 3 0 24 -51 46 -113z"/>
<path class="st1" d="M7420 726 l0 -346 70 0 70 0 0 129 0 128 119 6 c153 7 201 29 243
111 16 31 19 54 16 116 -4 90 -28 135 -93 172 -37 21 -55 23 -232 26 l-193 4
0 -346z m356 191 c14 -16 24 -41 24 -58 0 -72 -44 -99 -160 -99 l-80 0 0 96 0
96 96 -4 c91 -3 97 -5 120 -31z"/>
<path class="st1" d="M8050 725 l0 -345 70 0 70 0 0 150 c0 144 1 150 20 150 33 0 63 -42
126 -175 l59 -125 77 0 c43 0 78 3 78 6 0 3 -34 72 -75 154 -71 140 -82 155
-143 195 -1 1 10 16 25 32 16 17 39 60 52 97 27 76 57 106 107 106 l34 0 0 50
c0 46 -2 50 -24 50 -52 0 -131 -21 -152 -41 -12 -11 -43 -67 -69 -124 -45 -97
-68 -125 -105 -125 -6 0 -10 60 -10 145 l0 145 -70 0 -70 0 0 -345z"/>
<path class="st1" d="M8640 725 l0 -345 260 0 260 0 0 60 0 60 -190 0 -190 0 0 90 0 90
170 0 170 0 0 60 0 60 -170 0 -170 0 0 75 0 75 185 0 185 0 0 60 0 60 -255 0
-255 0 0 -345z"/>
<path class="st1" d="M9240 1010 l0 -60 100 0 100 0 0 -285 0 -285 70 0 70 0 0 285 0 285
100 0 100 0 0 60 0 60 -270 0 -270 0 0 -60z"/>
</g>
</svg>
